<svg width="42" height="42" viewBox="0 0 42 42" fill="none" xmlns="http://www.w3.org/2000/svg">
<path d="M21 42C15.6333 42 10.9573 40.2212 6.972 36.6637C2.98667 33.1061 0.701555 28.6627 0.116667 23.3333H4.9C5.44444 27.3778 7.24344 30.7222 10.297 33.3667C13.3506 36.0111 16.9182 37.3333 21 37.3333C25.55 37.3333 29.4101 35.749 32.5803 32.5803C35.7506 29.4117 37.3349 25.5516 37.3333 21C37.3333 16.45 35.749 12.5907 32.5803 9.422C29.4117 6.25333 25.5516 4.66822 21 4.66667C18.3167 4.66667 15.8083 5.28889 13.475 6.53333C11.1417 7.77778 9.17778 9.48889 7.58333 11.6667H14V16.3333H0V2.33333H4.66667V7.81667C6.65 5.32778 9.07122 3.40278 11.9303 2.04167C14.7894 0.680556 17.8127 0 21 0C23.9167 0 26.649 0.554556 29.197 1.66367C31.745 2.77278 33.9617 4.26922 35.847 6.153C37.7323 8.03989 39.2296 10.2566 40.3387 12.803C41.4478 15.3494 42.0016 18.0818 42 21C42 23.9167 41.4462 26.649 40.3387 29.197C39.2311 31.745 37.7339 33.9617 35.847 35.847C33.9601 37.7323 31.7434 39.2296 29.197 40.3387C26.6506 41.4478 23.9182 42.0016 21 42ZM27.5333 30.8L18.6667 21.9333V9.33333H23.3333V20.0667L30.8 27.5333L27.5333 30.8Z" fill="black"/>
</svg>
