<svg width="44" height="44" viewBox="0 0 44 44" fill="none" xmlns="http://www.w3.org/2000/svg">
<path d="M29.3333 44L14.6667 38.8667L3.3 43.2667C2.48518 43.5926 1.73148 43.5013 1.03889 42.9929C0.346296 42.4844 0 41.8016 0 40.9444V6.72222C0 6.19259 0.153185 5.72407 0.459555 5.31667C0.765926 4.90926 1.18311 4.6037 1.71111 4.4L14.6667 0L29.3333 5.13333L40.7 0.733333C41.5148 0.407407 42.2685 0.499482 42.9611 1.00956C43.6537 1.51963 44 2.20163 44 3.05556V37.2778C44 37.8074 43.8476 38.2759 43.5429 38.6833C43.2381 39.0907 42.8201 39.3963 42.2889 39.6L29.3333 44ZM26.8889 38.0111V9.41111L17.1111 5.98889V34.5889L26.8889 38.0111Z" fill="black"/>
</svg>
