<svg width="37" height="37" viewBox="0 0 37 37" fill="none" xmlns="http://www.w3.org/2000/svg">
<path d="M2 30.875C2 28.687 2.86919 26.5885 4.41637 25.0414C5.96354 23.4942 8.06196 22.625 10.25 22.625H26.75C28.938 22.625 31.0365 23.4942 32.5836 25.0414C34.1308 26.5885 35 28.687 35 30.875C35 31.969 34.5654 33.0182 33.7918 33.7918C33.0182 34.5654 31.969 35 30.875 35H6.125C5.03098 35 3.98177 34.5654 3.20818 33.7918C2.4346 33.0182 2 31.969 2 30.875Z" stroke="black" stroke-width="4" stroke-linejoin="round"/>
<path d="M18.5 14.375C21.9173 14.375 24.6875 11.6048 24.6875 8.1875C24.6875 4.77024 21.9173 2 18.5 2C15.0827 2 12.3125 4.77024 12.3125 8.1875C12.3125 11.6048 15.0827 14.375 18.5 14.375Z" stroke="black" stroke-width="4"/>
</svg>
